<?xml version="1.0"?>
<!-- Generated by SVGo (float) -->
<svg width="90.00" height="90.00"
     xmlns="http://www.w3.org/2000/svg"
     xmlns:xlink="http://www.w3.org/1999/xlink">
<defs>
<g id="0"></g>
<g id="1"><circle cx="5.00" cy="5.00" r="0.40" /></g>
<g id="2"><circle cx="5.00" cy="5.00" r="0.60" /></g>
<g id="3"><circle cx="5.00" cy="5.00" r="0.80" /></g>
<g id="4"><circle cx="5.00" cy="5.00" r="1.00" /></g>
<g id="5"><circle cx="5.00" cy="5.00" r="1.20" /></g>
<g id="6"><circle cx="5.00" cy="5.00" r="1.40" /></g>
<g id="7"><circle cx="5.00" cy="5.00" r="1.60" /></g>
<g id="8"><circle cx="5.00" cy="5.00" r="1.90" /></g>
<g id="9"><circle cx="5.00" cy="5.00" r="2.30" /></g>
<g id="a"><circle cx="5.00" cy="5.00" r="2.70" /></g>
<g id="b"><circle cx="5.00" cy="5.00" r="3.10" /></g>
<g id="c"><circle cx="5.00" cy="5.00" r="3.50" /></g>
<g id="d"><circle cx="5.00" cy="5.00" r="4.00" /></g>
<g id="e"><circle cx="5.00" cy="5.00" r="4.50" /></g>
<g id="f"><circle cx="5.00" cy="5.00" r="5.00" /></g>
</defs>
<rect x="0.00" y="0.00" width="90.00" height="90.00" style="stroke:none;fill:white" />
<use x="5.00" y="5.00" xlink:href="#e" />
<use x="15.00" y="5.00" xlink:href="#3" />
<use x="25.00" y="5.00" xlink:href="#b" />
<use x="35.00" y="5.00" xlink:href="#0" />
<use x="45.00" y="5.00" xlink:href="#c" />
<use x="55.00" y="5.00" xlink:href="#4" />
<use x="65.00" y="5.00" xlink:href="#4" />
<use x="75.00" y="5.00" xlink:href="#2" />
<use x="5.00" y="15.00" xlink:href="#9" />
<use x="15.00" y="15.00" xlink:href="#8" />
<use x="25.00" y="15.00" xlink:href="#f" />
<use x="35.00" y="15.00" xlink:href="#c" />
<use x="45.00" y="15.00" xlink:href="#1" />
<use x="55.00" y="15.00" xlink:href="#c" />
<use x="65.00" y="15.00" xlink:href="#1" />
<use x="75.00" y="15.00" xlink:href="#4" />
<use x="5.00" y="25.00" xlink:href="#9" />
<use x="15.00" y="25.00" xlink:href="#a" />
<use x="25.00" y="25.00" xlink:href="#f" />
<use x="35.00" y="25.00" xlink:href="#b" />
<use x="45.00" y="25.00" xlink:href="#f" />
<use x="55.00" y="25.00" xlink:href="#4" />
<use x="65.00" y="25.00" xlink:href="#c" />
<use x="75.00" y="25.00" xlink:href="#8" />
<use x="5.00" y="35.00" xlink:href="#9" />
<use x="15.00" y="35.00" xlink:href="#9" />
<use x="25.00" y="35.00" xlink:href="#6" />
<use x="35.00" y="35.00" xlink:href="#f" />
<use x="45.00" y="35.00" xlink:href="#b" />
<use x="55.00" y="35.00" xlink:href="#9" />
<use x="65.00" y="35.00" xlink:href="#2" />
<use x="75.00" y="35.00" xlink:href="#4" />
<use x="5.00" y="45.00" xlink:href="#2" />
<use x="15.00" y="45.00" xlink:href="#7" />
<use x="25.00" y="45.00" xlink:href="#a" />
<use x="35.00" y="45.00" xlink:href="#e" />
<use x="45.00" y="45.00" xlink:href="#4" />
<use x="55.00" y="45.00" xlink:href="#1" />
<use x="65.00" y="45.00" xlink:href="#e" />
<use x="75.00" y="45.00" xlink:href="#4" />
<use x="5.00" y="55.00" xlink:href="#6" />
<use x="15.00" y="55.00" xlink:href="#4" />
<use x="25.00" y="55.00" xlink:href="#9" />
<use x="35.00" y="55.00" xlink:href="#b" />
<use x="45.00" y="55.00" xlink:href="#9" />
<use x="55.00" y="55.00" xlink:href="#3" />
<use x="65.00" y="55.00" xlink:href="#4" />
<use x="75.00" y="55.00" xlink:href="#c" />
<use x="5.00" y="65.00" xlink:href="#a" />
<use x="15.00" y="65.00" xlink:href="#4" />
<use x="25.00" y="65.00" xlink:href="#9" />
<use x="35.00" y="65.00" xlink:href="#5" />
<use x="45.00" y="65.00" xlink:href="#9" />
<use x="55.00" y="65.00" xlink:href="#9" />
<use x="65.00" y="65.00" xlink:href="#1" />
<use x="75.00" y="65.00" xlink:href="#b" />
<use x="5.00" y="75.00" xlink:href="#7" />
<use x="15.00" y="75.00" xlink:href="#8" />
<use x="25.00" y="75.00" xlink:href="#5" />
<use x="35.00" y="75.00" xlink:href="#2" />
<use x="45.00" y="75.00" xlink:href="#b" />
<use x="55.00" y="75.00" xlink:href="#8" />
<use x="65.00" y="75.00" xlink:href="#5" />
<use x="75.00" y="75.00" xlink:href="#5" />
</svg>
