<?xml version="1.0"?>
<!-- Generated by SVGo (float) -->
<svg width="90.00" height="90.00"
     xmlns="http://www.w3.org/2000/svg"
     xmlns:xlink="http://www.w3.org/1999/xlink">
<defs>
<g id="0">
    <line x1="0.00" y1="0.00" x2="10.00" y2="10.00" style="stroke:black;stroke-width:1;stroke-linecap:round" />
</g>

<g id="1">
    <path d="M0.00,0.00 A10.00,10.00 0.00 0 0 10.00,10.00" style="stroke:black;stroke-width:1;fill:none;stroke-linecap:round" />
</g>

<g id="2">
    <path d="M0.00,0.00 A10.00,10.00 0.00 0 1 10.00,10.00" style="stroke:black;stroke-width:1;fill:none;stroke-linecap:round" />
</g>

<g id="3">
    <path d="M0.00,0.00 A20.00,20.00 0.00 0 0 10.00,10.00" style="stroke:black;stroke-width:1;fill:none;stroke-linecap:round" />
</g>

<g id="4">
    <path d="M0.00,0.00 A20.00,20.00 0.00 0 1 10.00,10.00" style="stroke:black;stroke-width:1;fill:none;stroke-linecap:round" />
</g>

<g id="5">
    <line x1="0.00" y1="0.00" x2="2.50" y2="7.50" style="stroke:black;stroke-width:1;stroke-linecap:round" />
    <line x1="2.50" y1="7.50" x2="10.00" y2="10.00" style="stroke:black;stroke-width:1;stroke-linecap:round" />
</g>

<g id="6">
    <line x1="0.00" y1="0.00" x2="7.50" y2="2.50" style="stroke:black;stroke-width:1;stroke-linecap:round" />
    <line x1="7.50" y1="2.50" x2="10.00" y2="10.00" style="stroke:black;stroke-width:1;stroke-linecap:round" />
</g>

<g id="7">
    <line x1="0.00" y1="0.00" x2="1.00" y2="5.00" style="stroke:black;stroke-width:1;stroke-linecap:round" />
    <line x1="1.00" y1="5.00" x2="5.00" y2="9.00" style="stroke:black;stroke-width:1;stroke-linecap:round" />
    <line x1="5.00" y1="9.00" x2="10.00" y2="10.00" style="stroke:black;stroke-width:1;stroke-linecap:round" />
</g>

<g id="8">
    <line x1="0.00" y1="0.00" x2="5.00" y2="1.00" style="stroke:black;stroke-width:1;stroke-linecap:round" />
    <line x1="5.00" y1="1.00" x2="9.00" y2="5.00" style="stroke:black;stroke-width:1;stroke-linecap:round" />
    <line x1="9.00" y1="5.00" x2="10.00" y2="10.00" style="stroke:black;stroke-width:1;stroke-linecap:round" />
</g>

<g id="9">
    <line x1="0.00" y1="0.00" x2="2.50" y2="5.00" style="stroke:black;stroke-width:1;stroke-linecap:round" />
    <line x1="2.50" y1="5.00" x2="7.50" y2="5.00" style="stroke:black;stroke-width:1;stroke-linecap:round" />
    <line x1="7.50" y1="5.00" x2="10.00" y2="10.00" style="stroke:black;stroke-width:1;stroke-linecap:round" />
</g>

<g id="a">
    <line x1="0.00" y1="0.00" x2="5.00" y2="2.50" style="stroke:black;stroke-width:1;stroke-linecap:round" />
    <line x1="5.00" y1="2.50" x2="5.00" y2="7.50" style="stroke:black;stroke-width:1;stroke-linecap:round" />
    <line x1="5.00" y1="7.50" x2="10.00" y2="10.00" style="stroke:black;stroke-width:1;stroke-linecap:round" />
</g>

<g id="b">
    <line x1="0.00" y1="0.00" x2="3.00" y2="7.00" style="stroke:black;stroke-width:1;stroke-linecap:round" />
    <line x1="3.00" y1="7.00" x2="7.00" y2="3.00" style="stroke:black;stroke-width:1;stroke-linecap:round" />
    <line x1="7.00" y1="3.00" x2="10.00" y2="10.00" style="stroke:black;stroke-width:1;stroke-linecap:round" />
</g>

<g id="c">
    <line x1="0.00" y1="0.00" x2="7.00" y2="3.00" style="stroke:black;stroke-width:1;stroke-linecap:round" />
    <line x1="7.00" y1="3.00" x2="3.00" y2="7.00" style="stroke:black;stroke-width:1;stroke-linecap:round" />
    <line x1="3.00" y1="7.00" x2="10.00" y2="10.00" style="stroke:black;stroke-width:1;stroke-linecap:round" />
</g>

<g id="d">
    <path d="M0.00,0.00 A5.00,5.00 0.00 0 0 5.00,5.00" style="stroke:black;stroke-width:1;fill:none;stroke-linecap:round" />
    <path d="M5.00,5.00 A5.00,5.00 0.00 0 1 10.00,10.00" style="stroke:black;stroke-width:1;fill:none;stroke-linecap:round" />
</g>

<g id="e">
    <path d="M0.00,0.00 A5.00,5.00 0.00 0 1 5.00,5.00" style="stroke:black;stroke-width:1;fill:none;stroke-linecap:round" />
    <path d="M5.00,5.00 A5.00,5.00 0.00 0 0 10.00,10.00" style="stroke:black;stroke-width:1;fill:none;stroke-linecap:round" />
</g>

<g id="f">
    <line x1="0.00" y1="0.00" x2="3.33" y2="0.00" style="stroke:black;stroke-width:1;stroke-linecap:round" />
    <line x1="3.33" y1="0.00" x2="3.33" y2="3.33" style="stroke:black;stroke-width:1;stroke-linecap:round" />
    <line x1="3.33" y1="3.33" x2="6.66" y2="3.33" style="stroke:black;stroke-width:1;stroke-linecap:round" />
    <line x1="6.66" y1="3.33" x2="6.66" y2="6.66" style="stroke:black;stroke-width:1;stroke-linecap:round" />
    <line x1="6.66" y1="6.66" x2="10.00" y2="6.66" style="stroke:black;stroke-width:1;stroke-linecap:round" />
    <line x1="10.00" y1="6.66" x2="10.00" y2="10.00" style="stroke:black;stroke-width:1;stroke-linecap:round" />
</g>

</defs>
<rect x="0.00" y="0.00" width="90.00" height="90.00" style="stroke:none;fill:white" />
<use x="5.00" y="5.00" xlink:href="#e" />
<use x="15.00" y="5.00" xlink:href="#3" />
<use x="25.00" y="5.00" xlink:href="#b" />
<use x="35.00" y="5.00" xlink:href="#0" />
<use x="45.00" y="5.00" xlink:href="#c" />
<use x="55.00" y="5.00" xlink:href="#4" />
<use x="65.00" y="5.00" xlink:href="#4" />
<use x="75.00" y="5.00" xlink:href="#2" />
<use x="5.00" y="15.00" xlink:href="#9" />
<use x="15.00" y="15.00" xlink:href="#8" />
<use x="25.00" y="15.00" xlink:href="#f" />
<use x="35.00" y="15.00" xlink:href="#c" />
<use x="45.00" y="15.00" xlink:href="#1" />
<use x="55.00" y="15.00" xlink:href="#c" />
<use x="65.00" y="15.00" xlink:href="#1" />
<use x="75.00" y="15.00" xlink:href="#4" />
<use x="5.00" y="25.00" xlink:href="#9" />
<use x="15.00" y="25.00" xlink:href="#a" />
<use x="25.00" y="25.00" xlink:href="#f" />
<use x="35.00" y="25.00" xlink:href="#b" />
<use x="45.00" y="25.00" xlink:href="#f" />
<use x="55.00" y="25.00" xlink:href="#4" />
<use x="65.00" y="25.00" xlink:href="#c" />
<use x="75.00" y="25.00" xlink:href="#8" />
<use x="5.00" y="35.00" xlink:href="#9" />
<use x="15.00" y="35.00" xlink:href="#9" />
<use x="25.00" y="35.00" xlink:href="#6" />
<use x="35.00" y="35.00" xlink:href="#f" />
<use x="45.00" y="35.00" xlink:href="#b" />
<use x="55.00" y="35.00" xlink:href="#9" />
<use x="65.00" y="35.00" xlink:href="#2" />
<use x="75.00" y="35.00" xlink:href="#4" />
<use x="5.00" y="45.00" xlink:href="#2" />
<use x="15.00" y="45.00" xlink:href="#7" />
<use x="25.00" y="45.00" xlink:href="#a" />
<use x="35.00" y="45.00" xlink:href="#e" />
<use x="45.00" y="45.00" xlink:href="#4" />
<use x="55.00" y="45.00" xlink:href="#1" />
<use x="65.00" y="45.00" xlink:href="#e" />
<use x="75.00" y="45.00" xlink:href="#4" />
<use x="5.00" y="55.00" xlink:href="#6" />
<use x="15.00" y="55.00" xlink:href="#4" />
<use x="25.00" y="55.00" xlink:href="#9" />
<use x="35.00" y="55.00" xlink:href="#b" />
<use x="45.00" y="55.00" xlink:href="#9" />
<use x="55.00" y="55.00" xlink:href="#3" />
<use x="65.00" y="55.00" xlink:href="#4" />
<use x="75.00" y="55.00" xlink:href="#c" />
<use x="5.00" y="65.00" xlink:href="#a" />
<use x="15.00" y="65.00" xlink:href="#4" />
<use x="25.00" y="65.00" xlink:href="#9" />
<use x="35.00" y="65.00" xlink:href="#5" />
<use x="45.00" y="65.00" xlink:href="#9" />
<use x="55.00" y="65.00" xlink:href="#9" />
<use x="65.00" y="65.00" xlink:href="#1" />
<use x="75.00" y="65.00" xlink:href="#b" />
<use x="5.00" y="75.00" xlink:href="#7" />
<use x="15.00" y="75.00" xlink:href="#8" />
<use x="25.00" y="75.00" xlink:href="#5" />
<use x="35.00" y="75.00" xlink:href="#2" />
<use x="45.00" y="75.00" xlink:href="#b" />
<use x="55.00" y="75.00" xlink:href="#8" />
<use x="65.00" y="75.00" xlink:href="#5" />
<use x="75.00" y="75.00" xlink:href="#5" />
</svg>
